# xmcd
#
# Track frame offsets: 
#        150
#        43444
#        85645
#        102124
#        127468
#        131518
#        135335
#        138207
#        142520
#        148645
#        155037
#        156998
#        159880
#        164455
#        168930
#        179377
#        187740
#        216307
#        241147
#
# Disc length: 4089 seconds
#
# Revision: 4
# Processed by: cddbd v1.5.2PL0 Copyright (c) Steve Scherf et al.
# Submitted via: ExactAudioCopy v1.3
#
DISCID=030ff713
DTITLE=Tchaikovsky - Best Tchaikovsky - Vol.6-6 ~ Orchestral Favourite
DTITLE=s
DYEAR=2010
DGENRE=Classical
TTITLE0=Marche Slave, Op.31  (1973 and 1997 Digital Remaster)
TTITLE1=String Serenade in C Op.48 - I. Pezzo in forma di Sonatina
TTITLE2=String Serenade in C Op.48 - II. Valse. (Moderato: Tempo di va
TTITLE2=lse)
TTITLE3=Romeo and Juliet Fantasy Overture
TTITLE4=Theme and Variations - Suite No.3  in G, Op.55, IV ~ Theme
TTITLE5=Theme and Variations - Suite No.3  in G, Op.55, IV ~ Variation I
TTITLE6=Theme and Variations - Suite No.3  in G, Op.55, IV ~ Variation I
TTITLE6=I
TTITLE7=Theme and Variations - Suite No.3  in G, Op.55, IV ~ Variation I
TTITLE7=II
TTITLE8=Theme and Variations - Suite No.3  in G, Op.55, IV ~ Variation I
TTITLE8=V
TTITLE9=Theme and Variations - Suite No.3  in G, Op.55, IV ~ Variation I
TTITLE9=I
TTITLE10=Theme and Variations - Suite No.3  in G, Op.55, IV ~ Variation 
TTITLE10=VI
TTITLE11=Theme and Variations - Suite No.3  in G, Op.55, IV ~ ariation V
TTITLE11=II
TTITLE12=Theme and Variations - Suite No.3  in G, Op.55, IV ~ Variation 
TTITLE12=VIII
TTITLE13=Theme and Variations - Suite No.3  in G, Op.55, IV ~ Variation 
TTITLE13=IX
TTITLE14=Theme and Variations - Suite No.3  in G, Op.55, IV ~ Variation 
TTITLE14=X
TTITLE15=Theme and Variations - Suite No.3  in G, Op.55, IV ~ Variation 
TTITLE15=XI
TTITLE16=Theme and Variations - Suite No.3  in G, Op.55, IV ~ Variation 
TTITLE16=XII
TTITLE17=Capriccio Italien, Op.45  (conclusion)
TTITLE18=1812  Overture, Op.49
EXTD=CD 6: Orchestral favourites YEAR: 2010
EXTT0=
EXTT1=
EXTT2=
EXTT3=
EXTT4=
EXTT5=
EXTT6=
EXTT7=
EXTT8=
EXTT9=
EXTT10=
EXTT11=
EXTT12=
EXTT13=
EXTT14=
EXTT15=
EXTT16=
EXTT17=
EXTT18=
PLAYORDER=
